<?xml version="1.0" standalone="no"?>
<!DOCTYPE svg PUBLIC "-//W3C//DTD SVG 20010904//EN"
 "http://www.w3.org/TR/2001/REC-SVG-20010904/DTD/svg10.dtd">
<svg version="1.0" xmlns="http://www.w3.org/2000/svg"
 width="62.000000pt" height="62.000000pt" viewBox="0 0 225.000000 225.000000"
 preserveAspectRatio="xMidYMid meet">

<g transform="translate(0.000000,225.000000) scale(0.100000,-0.100000)"
fill="#537ec2" stroke="none">
<path d="M934 2224 c-215 -36 -417 -144 -583 -314 -373 -380 -424 -983 -120
-1431 103 -152 307 -319 476 -389 584 -243 1249 62 1455 670 112 330 60 709
-136 1003 -122 182 -323 339 -531 413 -175 62 -374 80 -561 48z m383 -19 c210
-40 385 -130 543 -281 515 -492 436 -1342 -162 -1731 -307 -199 -690 -223
-1024 -64 -329 157 -554 463 -609 828 -45 300 28 593 210 835 152 202 352 335
599 399 92 23 132 28 237 29 73 0 160 -6 206 -15z"/>
<path d="M846 2142 c-8 -13 -1 -59 11 -74 6 -7 14 -30 18 -51 4 -20 11 -40 16
-43 12 -7 11 -2 -2 52 -14 54 -3 73 41 66 34 -5 39 -17 10 -25 -11 -3 -20 -13
-20 -22 0 -15 1 -15 16 0 11 11 20 13 27 6 13 -13 -10 -43 -27 -34 -7 3 -6 1
1 -7 7 -8 21 -14 32 -15 17 -1 19 3 14 27 -3 17 -1 28 6 28 6 0 11 7 11 15 0
8 -5 14 -11 13 -6 -2 -14 3 -16 10 -3 7 3 12 14 12 10 0 28 3 41 6 16 5 22 2
22 -10 0 -9 -6 -16 -14 -16 -7 0 -16 -9 -19 -21 -4 -13 -1 -18 6 -15 7 3 20 9
30 12 9 4 17 16 17 29 0 14 7 26 18 29 23 7 -165 -3 -202 -11 -27 -5 -29 -4
-24 21 5 25 -5 36 -16 18z"/>
<path d="M1120 2118 c0 -4 11 -8 25 -8 15 0 25 -6 25 -14 0 -8 -8 -13 -17 -12
-10 0 -18 -7 -20 -19 -1 -11 0 -14 3 -7 9 19 36 15 32 -5 -2 -10 -11 -17 -21
-17 -27 3 -20 -23 8 -28 20 -4 25 0 30 23 9 40 29 38 21 -1 -3 -19 -2 -29 4
-25 16 10 12 65 -5 71 -26 10 -16 24 17 24 19 0 28 4 23 9 -13 12 -125 20
-125 9z"/>
<path d="M796 2085 c4 -10 -6 -17 -35 -25 -23 -6 -39 -15 -36 -20 4 -6 20 -4
40 4 24 10 37 11 41 4 8 -12 -14 -28 -38 -28 -27 0 -22 -37 8 -65 38 -35 48
-31 13 5 -17 16 -27 35 -24 40 5 7 12 5 21 -7 12 -17 13 -17 14 0 0 26 19 21
26 -8 3 -14 10 -25 15 -25 12 0 12 1 -7 45 -8 21 -14 46 -11 55 2 9 -4 22 -14
28 -15 9 -17 9 -13 -3z"/>
<path d="M1350 2085 c0 -3 11 -10 25 -15 29 -11 35 -34 6 -25 -10 3 -23 -1
-30 -9 -15 -18 -10 -62 7 -58 6 1 12 -2 12 -8 0 -20 18 -9 24 15 4 14 13 25
21 25 19 0 19 -9 -1 -31 -10 -11 -12 -19 -5 -24 6 -3 15 5 21 19 10 27 4 56
-11 56 -5 0 -9 5 -9 11 0 7 11 9 30 6 50 -10 34 8 -23 26 -58 18 -67 20 -67
12z m33 -62 c8 -7 -11 -33 -24 -33 -5 0 -9 9 -9 20 0 19 20 27 33 13z"/>
<path d="M668 2019 c-45 -23 -49 -34 -11 -24 27 6 27 6 10 -13 -16 -17 -16
-21 -2 -32 8 -7 24 -10 35 -7 13 3 20 0 20 -9 0 -8 -9 -14 -21 -14 -35 0 -15
-25 22 -28 25 -2 30 0 19 7 -8 6 -11 13 -8 17 4 4 3 15 -3 26 -8 15 -17 18
-35 14 -27 -7 -33 8 -8 18 10 4 14 12 10 23 -4 9 -1 20 6 24 28 18 0 16 -34
-2z"/>
<path d="M1496 2026 c3 -7 -2 -20 -10 -29 -9 -9 -16 -26 -16 -38 0 -18 3 -20
12 -11 7 7 21 12 33 12 18 1 19 2 3 13 -20 16 -8 43 16 34 26 -10 18 9 -9 21
-33 15 -36 15 -29 -2z"/>
<path d="M1033 2002 c12 -15 49 -12 54 4 2 6 -11 10 -31 10 -27 -1 -32 -4 -23
-14z"/>
<path d="M1562 1993 c0 -10 -6 -33 -13 -51 -12 -29 -12 -35 2 -45 9 -7 14 -18
12 -24 -10 -28 7 -11 33 32 14 25 30 45 35 45 21 0 7 18 -30 38 -36 21 -40 21
-39 5z m48 -29 c0 -14 -34 -54 -46 -54 -18 0 -17 4 1 40 10 19 20 27 30 24 8
-4 15 -8 15 -10z"/>
<path d="M540 1990 c0 -5 7 -7 15 -4 8 4 15 8 15 10 0 2 -7 4 -15 4 -8 0 -15
-4 -15 -10z"/>
<path d="M580 1970 c-11 -11 -23 -20 -27 -20 -13 -1 -77 -59 -71 -65 3 -3 17
4 31 15 30 24 45 11 16 -13 -11 -10 -17 -22 -14 -27 3 -5 17 0 30 12 18 16 22
25 15 38 -6 11 -5 21 2 28 20 20 32 14 56 -28 12 -22 27 -40 32 -40 6 0 -1 18
-16 41 -14 22 -23 47 -20 55 9 23 -12 26 -34 4z"/>
<path d="M1026 1965 c-26 -20 -12 -32 18 -16 14 8 30 10 38 5 10 -6 10 -5 -1
9 -16 21 -30 21 -55 2z"/>
<path d="M1660 1942 c0 -5 7 -15 15 -22 8 -7 15 -19 15 -27 0 -13 -3 -13 -24
0 -22 15 -25 15 -41 -3 -18 -20 -13 -56 6 -44 8 4 7 9 -2 15 -11 6 -11 11 -1
21 9 9 12 9 12 0 0 -7 3 -11 8 -11 21 4 23 -3 7 -27 -27 -42 -11 -37 21 6 16
22 35 38 42 35 6 -2 12 2 12 11 0 20 30 30 42 13 7 -11 8 -10 6 5 -4 26 -22
30 -42 11 -15 -15 -18 -15 -46 5 -16 12 -30 17 -30 12z"/>
<path d="M1030 1910 c-405 -49 -707 -453 -650 -870 24 -176 90 -317 208 -442
135 -144 304 -225 505 -242 l67 -6 0 59 c0 46 4 60 17 65 23 9 34 -5 35 -44 1
-21 -5 -36 -15 -42 -10 -5 -17 -14 -17 -20 0 -17 104 -3 196 26 309 98 524
401 525 736 0 237 -72 411 -234 567 -71 68 -103 90 -189 132 -153 73 -297 99
-448 81z m95 -282 l50 -97 51 57 c28 31 62 70 76 87 l26 29 7 -127 7 -127 52
5 c114 10 226 15 226 9 0 -3 -29 -44 -65 -90 l-65 -84 125 -62 c69 -35 125
-65 125 -68 0 -3 -49 -25 -110 -50 -60 -25 -110 -48 -110 -52 0 -3 21 -32 47
-65 26 -32 63 -78 82 -102 l35 -43 -131 7 -132 7 -3 -130 -3 -130 -80 64 c-43
35 -80 62 -81 61 -2 -1 -10 -56 -18 -121 -9 -66 -18 -121 -20 -123 -2 -2 -33
50 -67 116 -35 67 -66 121 -69 121 -3 0 -45 -29 -95 -65 -49 -35 -93 -65 -97
-65 -4 0 -9 47 -10 104 l-3 103 -130 -63 c-71 -35 -131 -62 -133 -60 -2 2 28
75 67 162 39 87 67 162 63 166 -4 3 -40 20 -81 36 l-73 29 71 58 c39 33 71 62
71 65 0 3 -45 50 -99 104 -55 55 -98 102 -96 105 2 3 45 3 97 -1 51 -3 113 -7
138 -7 l45 -1 -3 95 -4 94 92 -30 c50 -17 93 -30 95 -28 1 2 8 54 14 114 6 61
14 123 17 139 l6 28 22 -38 c11 -22 44 -83 71 -136z m-88 -1158 l10 -35 7 38
c4 20 12 37 18 37 5 0 8 -10 5 -22 -3 -13 -9 -40 -12 -60 -9 -46 -23 -49 -32
-8 -8 41 -23 48 -23 11 0 -17 -5 -31 -11 -31 -7 0 -9 14 -4 43 14 88 25 95 42
27z m277 -32 c4 -21 3 -38 -2 -38 -10 0 -32 102 -24 115 6 10 14 -14 26 -77z
m-176 -5 c3 -46 -17 -63 -43 -37 -20 20 -19 48 1 69 24 24 39 13 42 -32z m136
39 c2 -4 7 -23 11 -42 6 -33 4 -36 -20 -38 -32 -2 -46 25 -22 43 21 15 22 29
2 21 -15 -5 -20 5 -8 17 9 9 31 9 37 -1z"/>
<path d="M1057 1638 c-3 -9 -9 -52 -12 -97 -5 -52 -12 -81 -20 -81 -6 0 -45
11 -85 25 -40 14 -75 25 -77 25 -2 0 -3 -38 -3 -85 l0 -86 -107 7 -108 7 39
-44 c21 -24 44 -49 50 -54 6 -6 23 -24 39 -41 l27 -31 -60 -48 c-33 -26 -57
-51 -55 -55 3 -4 32 -18 65 -30 33 -12 60 -24 60 -26 0 -2 -25 -59 -55 -128
-30 -68 -55 -127 -55 -130 0 -3 49 19 110 49 60 30 112 55 115 55 3 0 5 -43 5
-95 0 -52 3 -95 6 -95 3 0 36 22 73 48 36 27 71 51 78 55 7 5 26 -21 54 -73
26 -48 46 -75 50 -68 4 6 10 47 14 90 4 43 11 78 15 78 4 0 38 -25 76 -55 l69
-55 3 106 3 106 107 -7 c90 -7 105 -6 96 6 -6 8 -36 46 -67 86 -32 40 -57 76
-57 81 0 5 44 26 97 47 l96 38 -109 55 c-60 30 -111 56 -113 58 -2 2 16 27 40
56 24 29 49 60 56 68 10 13 -3 15 -108 11 l-119 -3 0 92 0 92 -57 -66 c-31
-36 -60 -66 -65 -66 -4 0 -30 43 -56 97 -31 61 -51 91 -55 81z m158 -272 c-19
-53 -35 -104 -35 -113 0 -9 23 -40 51 -70 28 -29 49 -57 47 -62 -5 -15 -272
-310 -277 -306 -3 4 51 104 136 251 l24 42 -48 53 c-26 29 -48 57 -47 63 1 13
176 247 181 242 2 -1 -13 -47 -32 -100z"/>
<path d="M1105 450 c-3 -5 1 -10 10 -10 9 0 13 5 10 10 -3 6 -8 10 -10 10 -2
0 -7 -4 -10 -10z"/>
<path d="M1105 410 c4 -6 11 -8 16 -5 14 9 11 15 -7 15 -8 0 -12 -5 -9 -10z"/>
<path d="M1250 420 c0 -5 5 -10 10 -10 6 0 10 5 10 10 0 6 -4 10 -10 10 -5 0
-10 -4 -10 -10z"/>
<path d="M1740 1874 c0 -8 -14 -33 -32 -55 -17 -21 -29 -41 -26 -44 2 -3 19
13 37 36 20 24 39 38 47 35 19 -7 18 9 -2 28 -19 20 -24 20 -24 0z"/>
<path d="M424 1845 c-21 -19 -34 -34 -27 -35 6 0 19 7 28 16 19 20 33 11 16
-10 -7 -8 -10 -20 -6 -26 5 -8 12 -3 20 12 6 12 8 28 4 34 -5 6 -3 16 3 22 6
6 9 14 6 17 -2 3 -22 -11 -44 -30z"/>
<path d="M550 1855 c-10 -12 -10 -15 3 -15 9 0 19 5 22 10 10 16 25 2 18 -16
-4 -11 -15 -15 -34 -12 -15 3 -26 1 -23 -4 3 -4 17 -8 30 -8 23 0 25 -3 19
-30 -8 -36 10 -41 19 -6 3 14 14 27 24 29 15 4 15 5 -1 6 -10 0 -17 7 -14 14
13 36 -38 63 -63 32z"/>
<path d="M470 1795 c-8 -9 -8 -15 -2 -15 12 0 26 19 19 26 -2 2 -10 -2 -17
-11z"/>
<path d="M341 1753 c-23 -27 -41 -51 -41 -55 0 -14 18 -8 24 8 3 8 11 12 16 9
7 -5 8 -11 1 -19 -12 -14 52 -70 72 -63 7 3 5 6 -4 6 -23 1 -32 30 -17 49 11
13 10 14 -9 4 -30 -17 -38 -15 -22 5 11 13 11 17 2 20 -7 3 -13 13 -13 23 0
31 23 29 63 -7 22 -19 42 -32 45 -29 3 4 -11 20 -32 37 -21 18 -35 37 -32 45
11 28 -14 13 -53 -33z"/>
<path d="M506 1785 c5 -11 0 -18 -15 -22 -33 -9 -24 -23 14 -21 19 1 35 5 35
10 0 5 -4 6 -10 3 -5 -3 -10 3 -10 14 0 11 -4 23 -10 26 -6 3 -7 -1 -4 -10z"/>
<path d="M1870 1785 c-7 -8 -16 -12 -21 -9 -5 3 -9 -1 -9 -9 0 -8 -17 -29 -37
-45 -21 -17 -35 -33 -32 -36 3 -3 21 8 40 24 19 16 39 29 45 30 16 0 66 -78
58 -91 -8 -13 -34 8 -34 27 0 8 -9 14 -19 14 -21 0 -51 -35 -51 -60 0 -8 6 -4
13 10 7 14 21 27 32 29 17 3 18 1 6 -13 -11 -14 -11 -16 3 -16 23 0 20 -15 -6
-33 -13 -8 -20 -17 -17 -21 3 -3 24 8 47 25 23 17 46 28 52 24 21 -13 9 13
-30 65 -22 29 -40 57 -40 62 0 19 33 21 46 3 16 -22 18 -12 4 16 -13 23 -33
25 -50 4z"/>
<path d="M1978 1616 c-16 -5 -28 -13 -28 -18 0 -4 -18 -17 -40 -28 -22 -11
-40 -25 -40 -31 0 -5 21 3 47 18 32 18 48 23 51 15 2 -7 8 -10 12 -7 5 3 7 12
4 20 -8 20 22 30 41 15 13 -11 14 -10 9 3 -8 21 -24 25 -56 13z"/>
<path d="M190 1605 c0 -8 2 -15 4 -15 2 0 6 7 10 15 3 8 1 15 -4 15 -6 0 -10
-7 -10 -15z"/>
<path d="M214 1546 c-14 -32 -24 -60 -20 -63 3 -3 11 6 17 21 7 14 15 26 19
26 15 0 19 -14 9 -27 -9 -10 -8 -17 1 -28 16 -19 60 -20 60 -1 0 8 8 16 18 18
13 3 9 8 -17 22 -25 14 -31 20 -21 29 9 9 14 8 24 -5 15 -20 26 -23 26 -8 0 5
-10 14 -21 21 -16 8 -27 8 -45 -2 -30 -15 -39 -7 -24 21 6 12 9 24 6 27 -3 3
-17 -20 -32 -51z m66 -56 c0 -11 -4 -20 -9 -20 -14 0 -23 18 -16 30 10 17 25
11 25 -10z"/>
<path d="M1989 1558 c-1 -5 -2 -14 -3 -20 -1 -7 -11 -13 -23 -13 -13 0 -31 -8
-40 -18 -16 -16 -16 -17 5 -17 28 0 29 -26 1 -40 -38 -21 -13 -21 35 0 l47 20
14 -33 c16 -38 3 -61 -18 -32 -16 21 -64 14 -74 -10 -8 -23 6 -70 18 -58 7 7
6 17 -3 32 -11 18 -11 23 2 31 23 15 31 12 37 -11 4 -16 12 -20 30 -16 15 3
27 -1 30 -10 4 -10 12 -4 29 19 27 36 28 38 15 38 -5 0 -12 -10 -15 -22 -7
-22 -7 -22 -21 7 -8 17 -26 59 -39 95 -14 36 -25 62 -27 58z m9 -65 c-5 -25
-28 -28 -28 -4 0 12 6 21 16 21 9 0 14 -7 12 -17z"/>
<path d="M176 1454 c-9 -24 -7 -36 5 -29 6 4 31 -1 55 -10 25 -9 48 -14 51
-11 3 3 -3 9 -13 12 -62 22 -85 35 -79 44 3 5 2 10 -3 10 -6 0 -13 -7 -16 -16z"/>
<path d="M152 1367 c-6 -23 -10 -42 -9 -43 1 -1 24 -5 50 -8 44 -7 49 -5 54
13 3 12 9 21 14 21 5 0 9 4 9 9 0 5 -18 11 -39 15 -22 3 -46 13 -54 21 -13 12
-16 9 -25 -28z m55 -3 c34 -9 38 -34 5 -34 -34 0 -57 14 -48 29 8 13 12 13 43
5z"/>
<path d="M2062 1298 c3 -27 0 -38 -9 -38 -7 0 -13 9 -13 20 0 11 -4 20 -9 20
-25 0 -41 -14 -41 -36 0 -27 -17 -32 -27 -9 -3 9 3 26 13 38 12 14 8 13 -10
-5 -36 -33 -30 -61 11 -56 21 2 28 9 28 25 1 33 13 39 21 9 4 -17 13 -26 25
-26 10 0 19 -5 19 -11 0 -5 4 -8 9 -5 9 6 -4 95 -15 105 -4 3 -5 -11 -2 -31z"/>
<path d="M128 1260 c-2 -22 0 -40 4 -40 5 0 8 7 8 15 0 9 9 15 21 15 15 0 19
-5 15 -15 -8 -21 21 -18 64 6 19 11 26 17 15 14 -39 -14 -50 -11 -48 13 2 12
-2 22 -7 22 -6 0 -10 -7 -10 -15 0 -8 -9 -15 -20 -15 -13 0 -20 7 -20 20 0 37
-18 20 -22 -20z"/>
<path d="M178 1062 c-4 -15 -14 -22 -30 -22 -22 -1 -22 -1 -5 -15 13 -9 17
-20 12 -35 -6 -19 -5 -20 13 -9 16 10 23 10 35 0 13 -10 15 -9 10 10 -4 15 0
26 12 35 18 13 18 14 -3 14 -14 0 -26 8 -31 22 l-8 22 -5 -22z"/>
<path d="M2060 1055 c0 -10 -10 -15 -27 -15 l-27 0 21 -15 c14 -10 20 -21 16
-32 -5 -13 -2 -15 12 -10 9 4 24 2 32 -5 12 -10 14 -9 11 8 -1 12 3 28 11 37
12 15 11 17 -8 17 -12 0 -21 6 -21 15 0 8 -4 15 -10 15 -5 0 -10 -7 -10 -15z"/>
<path d="M266 800 c-31 -27 -36 -29 -44 -14 -11 20 -27 1 -18 -21 8 -23 37
-18 68 12 23 22 31 25 37 14 11 -17 25 3 17 24 -8 22 -21 18 -60 -15z"/>
<path d="M1903 817 c9 -8 17 -22 17 -31 0 -22 42 -40 74 -32 42 10 30 33 -26
52 -84 27 -85 27 -65 11z m82 -37 c3 -5 -3 -10 -14 -10 -11 0 -23 5 -26 10 -3
6 3 10 14 10 11 0 23 -4 26 -10z"/>
<path d="M243 725 c-29 -13 -53 -27 -53 -31 0 -3 7 -4 15 0 8 3 26 1 39 -5 33
-16 86 12 79 41 -7 25 -15 25 -80 -5z m55 -7 c-3 -7 -15 -14 -29 -16 -23 -2
-23 -2 -5 13 24 18 39 20 34 3z"/>
<path d="M1896 734 c-15 -38 62 -70 93 -39 15 16 15 17 -4 13 -12 -2 -27 5
-38 19 -22 27 -42 30 -51 7z m41 -30 c-9 -9 -28 6 -21 18 4 6 10 6 17 -1 6 -6
8 -13 4 -17z"/>
<path d="M1850 680 c0 -12 82 -50 106 -50 9 0 12 5 9 10 -3 6 -15 10 -26 10
-10 0 -27 9 -36 20 -18 21 -53 27 -53 10z"/>
<path d="M285 655 c-41 -40 -26 -67 22 -41 48 26 54 32 47 49 -9 24 -41 21
-69 -8z m45 -4 c0 -10 -30 -24 -37 -17 -3 3 -2 9 2 15 8 13 35 15 35 2z"/>
<path d="M1820 650 c0 -5 5 -10 10 -10 6 0 10 5 10 10 0 6 -4 10 -10 10 -5 0
-10 -4 -10 -10z"/>
<path d="M1850 635 c0 -6 73 -55 82 -55 19 0 5 17 -32 38 -39 22 -50 26 -50
17z"/>
<path d="M327 594 c-43 -29 -43 -44 0 -21 15 9 36 18 46 21 10 3 15 10 12 16
-9 15 -16 13 -58 -16z"/>
<path d="M374 563 c-27 -20 -51 -38 -53 -40 -2 -2 -1 -6 2 -10 4 -3 16 2 27
12 24 22 27 9 3 -17 -9 -10 -13 -21 -9 -25 4 -5 12 0 18 10 5 10 24 27 41 39
l32 20 -30 -5 -29 -5 34 29 c51 41 22 36 -36 -8z"/>
<path d="M1807 571 l-17 -29 40 -26 c52 -35 64 -33 20 3 -44 37 -35 50 10 16
18 -14 36 -22 39 -19 6 5 -17 25 -49 44 -8 5 -12 12 -8 15 4 4 21 -3 38 -15
43 -31 49 -18 7 14 -43 33 -59 33 -80 -3z"/>
<path d="M1740 540 c0 -5 5 -10 11 -10 5 0 7 5 4 10 -3 6 -8 10 -11 10 -2 0
-4 -4 -4 -10z"/>
<path d="M1770 524 c0 -15 69 -79 77 -71 3 4 4 8 2 10 -2 1 -21 18 -42 36 -20
19 -37 30 -37 25z"/>
<path d="M435 459 c-50 -53 -55 -82 -6 -35 35 34 54 17 21 -19 -12 -12 -17
-25 -12 -28 11 -8 108 90 99 99 -4 4 -15 -1 -26 -10 -26 -23 -39 -2 -15 25 14
16 14 19 2 19 -8 0 -36 -23 -63 -51z"/>
<path d="M1700 491 c0 -11 89 -91 101 -91 13 0 22 27 14 40 -5 8 -11 8 -19 1
-9 -8 -22 -1 -46 24 -34 35 -50 43 -50 26z"/>
<path d="M1175 450 c-9 -14 4 -52 16 -45 12 8 12 42 0 50 -5 3 -12 1 -16 -5z"/>
<path d="M511 391 c-12 -22 -31 -49 -43 -61 -13 -12 -17 -20 -9 -20 16 0 114
81 106 88 -2 3 -14 -3 -25 -13 -22 -20 -26 -14 -9 17 6 11 8 22 6 25 -3 3 -15
-13 -26 -36z"/>
<path d="M1647 393 c-3 -5 -2 -15 4 -23 16 -26 10 -34 -11 -15 -11 10 -22 16
-25 13 -3 -3 10 -19 29 -36 19 -16 39 -40 46 -52 6 -12 14 -19 17 -17 2 3 -9
35 -25 72 -16 37 -32 63 -35 58z"/>
<path d="M625 380 c-4 -6 -15 -8 -24 -5 -35 11 -77 -70 -48 -93 12 -10 21 -2
52 43 21 30 36 58 33 61 -3 3 -9 0 -13 -6z m-35 -49 c-12 -23 -30 -36 -30 -22
0 21 13 41 26 41 11 0 12 -4 4 -19z"/>
<path d="M1573 338 l-22 -10 27 -42 c14 -22 27 -43 29 -45 2 -2 5 -2 8 1 3 3
-4 22 -16 42 -11 20 -16 36 -11 36 6 0 19 -13 29 -30 15 -26 33 -40 33 -25 0
5 -51 86 -54 84 0 0 -11 -5 -23 -11z"/>
<path d="M618 297 c-15 -23 -24 -45 -21 -50 3 -5 10 -1 16 9 5 11 21 31 34 45
18 20 21 28 11 32 -9 3 -24 -11 -40 -36z"/>
<path d="M666 281 c-20 -38 -20 -71 -2 -71 21 0 57 50 54 74 -5 33 -35 31 -52
-3z m20 -39 c-15 -15 -16 -15 -16 4 0 28 24 52 28 28 2 -9 -3 -24 -12 -32z"/>
<path d="M1507 303 c-25 -25 25 -102 58 -90 13 6 12 12 -7 52 -21 42 -36 54
-51 38z m37 -39 c11 -27 7 -37 -9 -24 -16 14 -20 40 -6 40 5 0 12 -7 15 -16z"/>
<path d="M800 224 c-12 -36 -19 -68 -16 -71 6 -6 6 -5 35 80 11 31 16 57 11
57 -4 0 -18 -30 -30 -66z"/>
<path d="M735 256 c-9 -14 -15 -37 -13 -52 4 -33 28 -45 28 -15 0 12 4 21 8
21 5 0 14 11 20 25 10 21 9 26 -8 35 -16 8 -22 6 -35 -14z m35 -10 c0 -2 -7
-9 -15 -16 -12 -10 -15 -10 -15 4 0 9 7 16 15 16 8 0 15 -2 15 -4z"/>
<path d="M1440 270 c-11 -7 -9 -20 14 -74 16 -36 30 -66 31 -66 2 0 3 13 3 29
-1 15 2 33 6 39 19 32 -24 90 -54 72z m38 -51 c2 -23 2 -23 -13 -5 -18 24 -20
39 -2 34 6 -3 13 -15 15 -29z"/>
<path d="M1202 238 c-31 -31 4 -144 38 -123 10 6 8 12 -8 24 -28 23 -36 56
-17 74 16 17 20 37 7 37 -4 0 -13 -5 -20 -12z"/>
<path d="M1358 238 c-33 -11 -33 -19 -7 -73 14 -30 18 -33 14 -13 -3 14 -8 33
-11 42 -3 9 -1 16 5 16 6 0 14 -14 18 -30 3 -17 10 -33 16 -37 10 -6 5 24 -9
61 -13 34 14 14 29 -21 l16 -38 -5 35 c-7 39 -21 70 -32 69 -4 0 -19 -5 -34
-11z"/>
<path d="M843 228 c-17 -21 -23 -60 -12 -80 13 -24 32 -23 24 2 -3 11 -2 20 3
20 16 0 32 46 19 59 -14 14 -22 14 -34 -1z m18 -31 c-13 -13 -26 -3 -16 12 3
6 11 8 17 5 6 -4 6 -10 -1 -17z"/>
<path d="M965 230 c-5 -7 -10 -38 -12 -68 -3 -41 -1 -53 9 -50 8 3 12 17 10
38 -2 18 1 36 7 40 8 4 9 15 3 30 -7 18 -11 20 -17 10z"/>
<path d="M905 209 c-12 -18 -9 -79 4 -92 10 -9 11 -4 5 30 -5 34 -3 44 10 49
9 3 16 10 16 15 0 13 -27 11 -35 -2z"/>
<path d="M1264 205 c-11 -28 15 -95 36 -95 14 0 21 56 11 83 -11 29 -38 36
-47 12z m36 -41 c0 -14 -4 -22 -10 -19 -5 3 -10 17 -10 31 0 14 4 22 10 19 6
-3 10 -17 10 -31z"/>
<path d="M1006 189 c-9 -45 -13 -89 -7 -89 11 0 29 95 21 104 -5 5 -11 -2 -14
-15z"/>
<path d="M1051 148 c1 -42 3 -48 9 -28 12 36 12 80 0 80 -6 0 -10 -24 -9 -52z"/>
<path d="M1097 193 c-10 -9 -8 -66 3 -83 15 -24 22 -5 9 24 -10 20 -10 29 -1
38 7 7 12 16 12 20 0 10 -14 11 -23 1z"/>
</g>
</svg>
